<svg xmlns="http://www.w3.org/2000/svg" xmlns:xlink="http://www.w3.org/1999/xlink" version="1.1" width="123" height="123" viewBox="0 0 123 123" xml:space="preserve">
<g transform="matrix(1 0 0 1 61.94 61.95)" id="Layer_1"  >
<path style="stroke: none; stroke-width: 1; stroke-dasharray: none; stroke-linecap: butt; stroke-dashoffset: 0; stroke-linejoin: miter; stroke-miterlimit: 4; fill: rgb(207,207,207); fill-rule: nonzero; opacity: 1;"  transform=" translate(-61.44, -61.45)" d="M 88.66 3.37 h 21.52 L 97.13 62 c -2.51 11.15 -4.23 17.97 -5.18 20.52 c 3.37 15.51 8.3 23.25 14.73 23.25 c 7.6 0 11.54 -5.27 11.8 -15.81 h 4.41 c -0.26 9.81 -2.03 17.76 -5.36 23.85 c -3.33 6.05 -7.69 9.07 -13.09 9.07 c -4.45 0 -7.78 -1.81 -9.98 -5.44 c -2.16 -3.63 -4.54 -11.06 -7.04 -22.25 c -8.77 18.45 -23.12 27.7 -42.99 27.7 c -13.61 0 -24.37 -5.31 -32.41 -15.9 C 4.02 96.39 0 81.23 0 61.48 C 0 42.08 4.36 27 13.13 16.2 C 21.91 5.4 32.45 0 44.76 0 c 8.68 0 15.81 3.07 21.39 9.25 c 5.57 6.14 10.5 16.2 14.78 30.11 L 88.66 3.37 L 88.66 3.37 z M 77.51 53.01 c -3.93 -13.52 -8.38 -24.11 -13.26 -31.76 c -4.88 -7.6 -10.72 -11.41 -17.54 -11.41 c -15.42 0 -23.12 18.06 -23.12 54.14 c 0 34.26 7.39 51.37 22.12 51.37 c 12.79 0 22.25 -15.12 28.39 -45.37 L 77.51 53.01 L 77.51 53.01 z" stroke-linecap="round" />
</g>
</svg>